<svg xmlns="http://www.w3.org/2000/svg" viewBox="0 0 826.04 553.29"><defs><style>.cls-1{fill:#629cd4;}.cls-2,.cls-54{fill:#1b4094;}.cls-3{fill:#7dbe60;}.cls-4{fill:#335f46;}.cls-5{fill:#fee86c;}.cls-6{fill:#f6bd0b;}.cls-7{fill:#ba8f00;}.cls-8{fill:#ff9d00;}.cls-9{fill:#f4ecbe;}.cls-10{fill:#ffcc39;}.cls-11{fill:#f2b11d;}.cls-12{fill:#09223f;}.cls-13{fill:#152b47;}.cls-14,.cls-55{fill:none;stroke-miterlimit:10;}.cls-14{stroke:#152b47;stroke-width:8px;}.cls-15{fill:#354a67;}.cls-16{fill:#f8fae4;}.cls-17{fill:#2b3d54;}.cls-18{fill:#f6f0b8;}.cls-19{fill:#f9fccc;}.cls-20{fill:#afe4b5;}.cls-21{fill:#09504c;}.cls-22{fill:#f0bc99;}.cls-23{fill:#25816a;}.cls-24{fill:#59bba0;}.cls-25{fill:#0c0f36;}.cls-26{fill:#229167;}.cls-27{fill:#81dbb5;}.cls-28{fill:#dbf0ea;}.cls-29{fill:#d8ece7;}.cls-30{fill:#58627c;}.cls-31{fill:#7f899a;}.cls-32{fill:#c1cad3;}.cls-33{fill:#f6c004;}.cls-34{fill:#313131;}.cls-35{fill:#da8d00;}.cls-36{fill:#6a6f6e;}.cls-37{fill:#f0f0f3;}.cls-38{fill:#e8e2c8;}.cls-39{fill:#e2b11f;}.cls-40{fill:#fbf8ae;}.cls-41{fill:#b76f00;}.cls-42{fill:#513e08;}.cls-43{fill:#ceef0c;}.cls-44{fill:#5d656c;}.cls-45{fill:#1a2e4f;}.cls-46{fill:#909e10;}.cls-47{fill:#2696e6;}.cls-48{fill:#1f73d6;}.cls-49{fill:#c1f5f2;}.cls-50{fill:#155aa8;}.cls-51{fill:#48d5f8;}.cls-52{fill:#35c0fb;}.cls-53{fill:#adf4ff;}.cls-54{opacity:0.6;}.cls-55{stroke:#731d00;stroke-width:4px;}</style></defs><title>Asset 3</title><g id="Layer_2" data-name="Layer 2"><g id="Layer_4" data-name="Layer 4"><path class="cls-1" d="M209.28,351.41V538.89a0,0,0,0,0,0,0c1.08.4,46.56,17.19,51,14s191-115.72,191-115.73h0s7.74-5.92-9.4-11.58c-16-5.29-201.88-67.84-229.26-77A2.67,2.67,0,0,0,209.28,351.41Z"/><path class="cls-2" d="M212.62,350.13V539.48L27.09,475.32s-8.94-3.79,0-10l180.52-115.2S212.62,346.4,212.62,350.13Z"/><path class="cls-3" d="M574.19,60.19l-6,187.36a0,0,0,0,0,0,0c1.07.44,46,19,50.49,16s194.57-108,194.59-108h0s7.92-5.6-9-12c-15.83-5.93-199.57-75.9-226.65-86.13A2.65,2.65,0,0,0,574.19,60.19Z"/><path class="cls-4" d="M577.57,59l-6.08,189.22L388.13,176.71s-8.81-4.15.32-10L572.56,58.85S577.69,55.31,577.57,59Z"/><path class="cls-5" d="M186.17,122V309.47a0,0,0,0,0,0,0c1.08.4,46.56,17.19,51,14s191-115.72,191-115.73h0s7.74-5.92-9.4-11.58c-16-5.29-201.88-67.84-229.26-77A2.67,2.67,0,0,0,186.17,122Z"/><path class="cls-6" d="M189.51,120.72V310.06L4,245.91s-8.94-3.79,0-10L184.5,120.72S189.51,117,189.51,120.72Z"/><path class="cls-7" d="M100.64,279.53l121.87-70.07,120.76,35-108.78,71s-10.11,7.73-28.3,0Z"/><path class="cls-8" d="M89.71,192.82s-2.24,72.43,14.23,76.79,73.27-11.15,73.27-11.15-6.94-11.63-3.9-17.93S195,225.27,195,225.27s-32.1-46.41-36.75-52.12-23.39-5.2-23.39-5.2S92.82,163,89.71,192.82Z"/><path class="cls-9" d="M158.27,124.19s5.95,18.37-8.86,32.15c-11.57,10.77-15,6.56-15,6.56s.32,11.65,3.91,12.39c2.56.53-3.91,7.29-3.91,7.29l-15-7.29s5.22-62,12.39-62,21.35-1.05,23.31-.32S158.27,124.19,158.27,124.19Z"/><path class="cls-6" d="M103.16,153.36A7.94,7.94,0,0,1,100.1,149c-1.11-4.6-1.55-11.79,4.89-15.76,10-6.15,2.6-23.12,3.9-26s6.94-14.06,18.21-11.15c6.63,1.71,9.51.57,10.76-.66a5.79,5.79,0,0,1,4.66-1.65c5.54.55,15.35,3.14,15.6,14.57a7.39,7.39,0,0,1-2.52,5.77c-4.13,3.51-13.18,10.47-21.53,11.94a6.91,6.91,0,0,0-5.4,6.67c-.49,9.9-2.05,28.09-6.91,33.64-6.79,7.76,1.45,11.22-7.22,18.21s-19.51,2.22-24.28,0-.43-3.82,0,0-8.67-15.3,4.77-24C102.86,155.45,103.77,153.83,103.16,153.36Z"/><path class="cls-10" d="M173.32,240.53s-45.52-1.46-47.69,2.42S173.32,240.53,173.32,240.53Z"/><path class="cls-10" d="M117.76,204.45s5.51,37.91,10.25,39.94Z"/><path class="cls-11" d="M144.7,182.59s23.84,18.19,20.81,55.51C165.51,238.09,175.92,195.91,144.7,182.59Z"/><polygon class="cls-12" points="178.12 295.65 143.31 282.06 229.69 224.42 264.5 228.46 178.12 295.65"/><path class="cls-9" d="M174.18,239.43s24.71-8.53,28.18,3.58,0,20.84,0,20.84-6.5,1.94-10.4-3.39S174.18,259,174.18,259,169.17,240.85,174.18,239.43Z"/><path class="cls-13" d="M240.64,175.48s-19.41-26.77-39-18.66c0,0,26.13-28.44,35.56-26h8S255.15,131.67,240.64,175.48Z"/><path class="cls-14" d="M245.12,136.09s30.48-25.15,32.66,46.5"/><polygon class="cls-15" points="226.63 217.29 312.02 163.31 312.02 241.16 226.63 301.38 226.63 217.29"/><polygon class="cls-16" points="226.63 217.29 218.09 217.29 301.51 163.31 312.02 163.31 226.63 217.29"/><rect class="cls-16" x="218.09" y="217.29" width="8.54" height="84.09"/><path class="cls-17" d="M261.45,262.45l22.66-17.07s11.82,2.94,17.41,36.72l-24.63,17.26S273.27,270.16,261.45,262.45Z"/><path class="cls-18" d="M261.45,262.45v10.1s8.21,3.62,9.52,30.29l6.24-4.19S275.24,268.17,261.45,262.45Z"/><path class="cls-19" d="M201.64,156.82s31.74,22.72,39,18.66S208.36,146.27,201.64,156.82Z"/></g><g id="Layer_5" data-name="Layer 5"><path class="cls-20" d="M507.18,121.61s-22.49-22.91-22.07-36-23.19-.93-23.19-.93,1.36,50.21,26.48,71.21S507.18,121.61,507.18,121.61Z"/><path class="cls-21" d="M538.38,125.58l27.51,17.78s-18.52,38.51,9.76,49.3l-4.16,55.61L532.25,235l-35.16-14.7s-1.67-34.85-5.77-41.78-4.28-51.75,1.76-54.76S538.38,125.58,538.38,125.58Z"/><path class="cls-22" d="M551.09,91.13S565.4,128,538.57,122.49C538.57,122.49,528.5,91.53,551.09,91.13Z"/><path class="cls-23" d="M501.34,87.79s9.41-39.64,40.82-16.67C542.15,71.12,537.43,97.13,501.34,87.79Z"/><path class="cls-24" d="M501.34,87.79l-.17,5.44s38.71,7.49,46.25-20.41l-5.26-1.7S538,91.74,501.34,87.79Z"/><path class="cls-25" d="M505.66,101.71s4.14,21.14,9.32,20.21-10-.33-10.49,16c0,0-9.86,4.43-.45,13.87s18.65,3.16,18.65,3.16,13.39-3.69,12.62-15.8,3.25-16.62,3.25-16.62-6.84-25,2.84-28.19-36.69,3.13-36.69,3.13Z"/><path class="cls-26" d="M501.18,92.6l-4.64,6.74S555,111.89,553,76.52l-5.62-4.33S542.55,100.2,501.18,92.6Z"/><path class="cls-27" d="M565.9,143.35s55.53,36.67,57.57,40.36-9.56,11.68-6.07,20.88-38.88-4.54-41.84-8.93S550.11,180.76,565.9,143.35Z"/><polygon class="cls-25" points="478.74 13.14 486.36 13.44 490.05 44.99 485.35 44.8 478.74 13.14"/><path class="cls-22" d="M623.47,183.72l51.72,20.79s32.85,3.08,36,7.15-10.39,4.14-10.39,4.14,19.36,2.59,15.43,7.26-19.23,10.1-24,7.49-15.31-10.88-15.31-10.88L617.4,204.6S616.09,194.9,623.47,183.72Z"/><path class="cls-22" d="M480.45,79.58l3.44-39.76s13.35-17.88-.09-9l-1.24-6.48c-.15-1.72,0-5.88-1.58-5.88-3.2,0-9.49,4.09-9.73,11.76-.37,11.46-10.28,45.87-5.83,52.8C465.4,83.06,477.56,78.36,480.45,79.58Z"/><path class="cls-28" d="M489.54,8.4c-.14,4.48-3.51,8-7.51,7.81s-7.13-3.92-7-8.39,3.51-8,7.51-7.81S489.69,3.92,489.54,8.4Z"/><path class="cls-25" d="M475,7.82s8.92,2.7,13.75-3.31l.75,3.89s-5.3,6-14.09,2.38Z"/><polygon class="cls-29" points="619.67 128.84 578.18 113.96 826.04 30 619.67 128.84"/><polygon class="cls-30" points="619.67 128.84 634.62 164.56 640.11 137.78 821.5 32.17 619.67 128.84"/><polygon class="cls-31" points="634.62 164.56 640.11 137.78 662.91 148.98 634.62 164.56"/><polygon class="cls-32" points="640.11 137.78 821.5 32.17 709.55 167.57 640.11 137.78"/><path class="cls-22" d="M488.57,18.5s5.81,4.74,1.13,9.69Z"/></g><g id="Layer_6" data-name="Layer 6"><path class="cls-5" d="M506.5,243.53v202.7a0,0,0,0,0,0,0c1.14.43,49.27,18.58,53.94,15.1s202.08-125.11,202.1-125.13h0s8.19-6.4-10-12.52C735.68,318,539,250.37,510,240.49,508.26,239.89,506.5,241.42,506.5,243.53Z"/><path class="cls-33" d="M510,242.15V446.87L313.71,377.51s-9.46-4.1,0-10.8l191-124.55S510,238.11,510,242.15Z"/><path class="cls-34" d="M527.75,410.77s7.09-54.58,7.09-54.58"/><path class="cls-35" d="M441.27,422.8l156.16-112L470.08,264.43l-153.9,96.48s-18.33,13.65,0,18.2S441.27,422.8,441.27,422.8Z"/><polygon class="cls-36" points="348.5 307.15 348.5 393.62 440.61 331.73 440.61 246.91 348.5 307.15"/><polygon class="cls-37" points="357.9 311.62 431.2 261.56 431.2 328.91 357.9 378.97 357.9 311.62"/><polygon class="cls-38" points="372.64 317.54 372.64 354.85 416.46 324.65 416.46 285.68 372.64 317.54"/><polygon class="cls-39" points="372.64 325.27 416.46 294.33 416.46 285.68 372.64 317.54 372.64 325.27"/><polygon class="cls-40" points="348.5 307.15 343.13 305.18 430.24 246.91 440.61 246.91 348.5 307.15"/><polygon class="cls-36" points="450.36 243.76 450.36 330.23 542.48 268.33 542.48 183.51 450.36 243.76"/><polygon class="cls-37" points="459.77 248.22 533.07 198.16 533.07 265.52 459.77 315.58 459.77 248.22"/><polygon class="cls-38" points="474.51 254.14 474.51 291.46 518.33 261.25 518.33 222.28 474.51 254.14"/><polygon class="cls-39" points="482.55 260 525.15 229.8 525.15 221.36 482.55 252.45 482.55 260"/><polygon class="cls-40" points="450.35 243.94 445.14 242.01 529.83 185.13 539.91 185.13 450.35 243.94"/><polygon class="cls-40" points="445 241.78 445 330.23 450.36 330.23 450.36 243.76 445 241.78"/><polygon class="cls-41" points="441.27 422.8 447.68 425.73 600.83 317.38 598.39 320.27 597.44 310.85 441.27 422.8"/><polygon class="cls-12" points="422.25 379.47 422.25 373.81 507.21 315.58 539.78 335.8 456.85 396.46 422.25 379.47"/><path class="cls-42" d="M520.64,266.94s10-21.15,32-13.06c0,0,28.12,4.19,31.21,33.37,2.88,27.13-14.09,43.09-14.09,43.09h-6.37s-12-17.79-14.87-17.79,9.06-9.92,4.88-17.9c-1.25-2.39-4.1,1.9-5.7,2.77-7.73,4.19-15.67-1.83-21.35-9.14-2.32-3-4.14-6.07-4.74-8.89C519.45,269.34,520.64,266.94,520.64,266.94Z"/><path class="cls-22" d="M522.16,277.83s-1.85,21.21-3.61,23.64a3.89,3.89,0,0,0-.61,1.43c-.76,3.33,1.61,6.53,4.62,6.51h.65s-2.57,9.1,2.32,15.86c1.94,2.68,30.33,7.18,34,3.44s9.08-2.91,9.08-2.91-15.47-15.8-16.9-16.73,6.55-11.71,3.69-15-8.38,1.63-8.38,1.63C556.44,287.11,539.78,261.88,522.16,277.83Z"/><path class="cls-43" d="M608.47,426.32S602.31,299.54,568,320.94c0,0-34.85,8.9-43,51.47s-4,43.91-4,43.91S504.48,407.75,501.7,431c-1.17,9.81-.32,4.9,0,11.33,0,0,9.77,8.59,13.85,7.26s22.91,7.4,22.91,7.4l16.24,3.33Z"/><path class="cls-22" d="M490.76,378.84s-17-7.78-21.55-9.08,7.11-30.38,20.76-18.2c18.1,16.15,11.16,25.87,10.36,21.15l27.42,38.06s-16.51-4.55-18.77,14.31Z"/><polygon class="cls-44" points="558.82 346.79 643.91 291.46 655.86 293.2 561.14 353.13 552.57 350.8 558.82 346.79"/><path class="cls-45" d="M561.14,353.13c10.25,80.66-45.6,96.45-45.6,96.45,31.33,12.64,48.48,15,48.48,15l88.45-60.43c-1.71-31.66,3.39-111,3.39-111"/><path class="cls-45" d="M558.44,349.08"/><path class="cls-44" d="M558.44,346.8"/><path class="cls-44" d="M555.12,350.61s12.29,78.43-39.57,99l2.94,1.17s61.81-17,45.36-97.87Z"/><path class="cls-46" d="M549.34,413.49s9-24.09,4.78-39.89"/><polygon class="cls-40" points="343.35 304.97 343.35 393.41 348.71 393.41 348.71 306.94 343.35 304.97"/></g><g id="Layer_3" data-name="Layer 3"><path class="cls-47" d="M178.31,316.45l2.79,138.27L109.61,504.1,62.17,486.42c1.67-93.43.26-94.6.26-94.6Z"/><path class="cls-9" d="M283.2,332.88a13.81,13.81,0,0,0,.61-5.82c-1.07-9.85-6.66-41-34.28-37.65-32.74,4-26.56,28.68-26.56,28.7h0s-3.54,16.83-7.08,22.76,4,3.84,4,3.84-2.94,29.56,11.33,30,20.55-1.87,20.56-1.88h0s9.65,1,5.46,17.83-1.68,5.65-1.68,5.63h0s13.3-23.71,28.32-17.45a.1.1,0,0,0,.12-.13c-1-2.64-11-28.51-6.62-34.17A41,41,0,0,0,283.2,332.88Z"/><path class="cls-48" d="M242.67,488.91s12.26,61,15.6,63.53,62.39-36.12,62.39-36.12,8.91-134.53-34.54-139.52c-34.64-4-57.64,61.83-75.76,103.39,0,0-16.16,15.57,0,29.27C220.28,517.88,242.67,488.91,242.67,488.91Z"/><path class="cls-9" d="M229.31,438.19s-4.47-34-7.81-34.61c-2-.37-6.42-4.81-9.77-8.42a10.11,10.11,0,0,1-1.18-11.75c2.46-4.25,6.55-8.51,12.62-6.74,11.14,3.24,8.91,23.33,8.91,23.33l5.84,21.83Z"/><polygon class="cls-49" points="58.27 391.75 172.48 316.38 178.6 316.38 62.73 391.75 58.27 391.75"/><polygon class="cls-50" points="82.78 464.59 94.48 456.52 94.48 473.34 82.78 481.75 82.78 464.59"/><polygon class="cls-50" points="96.73 471.38 108.42 463.31 108.42 480.13 96.73 488.53 96.73 471.38"/><polygon class="cls-50" points="147.18 405.18 158.88 397.11 158.88 413.93 147.18 422.33 147.18 405.18"/><polygon class="cls-51" points="96.73 437.3 108.42 429.23 108.42 446.05 96.73 454.46 96.73 437.3"/><polygon class="cls-52" points="147.74 427.6 159.44 419.53 159.44 436.35 147.74 444.76 147.74 427.6"/><polygon class="cls-53" points="113.15 446.15 124.85 438.08 124.85 454.9 113.15 463.31 113.15 446.15"/><polygon class="cls-53" points="130 417.79 141.7 409.72 141.7 426.54 130 434.95 130 417.79"/><polygon class="cls-53" points="94.48 400 88.63 386.76 153.59 376.26 96.73 426.63 94.48 412.93 141.7 383.65 94.48 400"/><polygon class="cls-53" points="62.73 391.75 62.73 486.42 58.24 485.12 58.27 391.75 62.73 391.75"/><path class="cls-54" d="M243,487.92s17.53-23,19.63-29.27.47,39.38-16,46.78Z"/><path class="cls-47" d="M223.56,294c-2.35,7.44,19.09,17.31,19.11,17.32h0s15.45.64,10.18,11.55c-6.47,13.39,9.43,9.9,9.45,9.9h0s9,3.31,0,11.8a13.27,13.27,0,0,0-4.24,9.48h18.62c0-.08,18.26-37.61,2.17-49.23-1.91-1.38-.67-5.34-2.48-6.88-11.42-9.71-.49-1.27-1.61-2.11C264.72,288.38,234.37,259.71,223.56,294Z"/><line class="cls-55" x1="258.58" y1="332.72" x2="226.29" y2="320.87"/><rect class="cls-55" x="220.32" y="317.54" width="5.58" height="14.67" rx="2.65" ry="2.65"/></g></g></svg>