<svg xmlns="http://www.w3.org/2000/svg" xmlns:xlink="http://www.w3.org/1999/xlink" viewBox="0 0 1119.82 694.69"><defs><style>.cls-1{fill:none;}.cls-2{fill:#28559e;}.cls-3{fill:#e3eef1;}.cls-4{fill:#c6d4df;}.cls-5{fill:#282a48;}.cls-6{fill:#ee513c;}.cls-7{fill:#3c6ed2;}.cls-8{fill:#39ce9c;}.cls-9{opacity:0.13;}.cls-10{clip-path:url(#clip-path);}.cls-11{fill:#0bf9dc;}.cls-12{fill:#ae40ff;}.cls-13{fill:#f8aa8f;}.cls-14{fill:#50207a;}.cls-15{fill:#331651;}.cls-16{fill:#011c26;opacity:0.43;}.cls-17{fill:#c17768;}.cls-18{fill:#061c2a;}.cls-19{fill:#18eaea;}.cls-20{fill:#dfdfdf;}.cls-21{fill:#024968;}.cls-22{fill:#005889;}.cls-23{fill:#37ce9b;}.cls-24{fill:#b4c7cf;}.cls-25{fill:#7c084d;}.cls-26{fill:#89490a;}.cls-27{fill:#f59180;}.cls-28{fill:#f40689;}.cls-29{fill:#3a6cd2;}.cls-30{fill:#313131;opacity:0.14;}</style><clipPath id="clip-path"><rect class="cls-1" x="649.42" y="134.79" width="208.59" height="397.48"/></clipPath></defs><title>Asset 2</title><g id="Layer_2" data-name="Layer 2"><g id="Layer_3" data-name="Layer 3"><path class="cls-2" d="M895.13,371.76l-213.84,4s-49.36,112.08,91.09,128.85C893,519,917.26,417.73,895.13,371.76Z"/><rect class="cls-3" x="287.51" y="148.45" width="612.98" height="380.09" rx="12" ry="12"/><rect class="cls-4" x="316.37" y="212.52" width="553.54" height="58.9"/><rect class="cls-4" x="325.36" y="292.25" width="116.3" height="100.85"/><rect class="cls-4" x="474.53" y="292.25" width="384.61" height="23.58"/><rect class="cls-4" x="474.53" y="338.5" width="384.61" height="22.07"/><rect class="cls-4" x="474.53" y="379.27" width="384.61" height="20.26"/><rect class="cls-4" x="325.36" y="412.83" width="533.77" height="86.59"/><path class="cls-5" d="M294.44,147.31h596a12,12,0,0,1,12,12V186a0,0,0,0,1,0,0h-620a0,0,0,0,1,0,0V159.31A12,12,0,0,1,294.44,147.31Z"/><ellipse class="cls-6" cx="318.59" cy="166.09" rx="6.77" ry="5.87"/><ellipse class="cls-7" cx="351.09" cy="166.09" rx="6.77" ry="5.87"/><ellipse class="cls-8" cx="383.51" cy="166.09" rx="6.77" ry="5.87"/><polygon class="cls-9" points="119.8 582.32 0 694.69 1042.31 694.69 1109.28 582.32 119.8 582.32"/></g><g id="Layer_2-2" data-name="Layer 2"><path class="cls-7" d="M628.53,540V139.69a69.53,69.53,0,0,1,10.12-36.43c10.19-16.56,28.95-36.55,60.18-36.55H816.64c44,0,75.78,42.21,65.39,85.89-3.06,12.87-.89-38.32,1.81-21.57.57,3.54-2,73-1.91,76.59l3.5,317a70.79,70.79,0,0,0,2.09,16.33c5.36,21.52,22.53,72.79,64.65,73.74H702.29a65.86,65.86,0,0,1-38.81-12.5A111.51,111.51,0,0,1,646,586.41,69.64,69.64,0,0,1,628.53,540Z"/><g class="cls-10"><image width="471" height="913" transform="translate(649.42 134.79) scale(0.44 0.44)" xlink:href="../../Asset 1.png"/></g><polygon class="cls-7" points="660.43 104.03 656 547.09 641.61 547.09 641.61 104.03 660.43 104.03"/><polygon class="cls-7" points="867.42 109.1 863 513.03 848.6 513.03 848.6 109.1 867.42 109.1"/></g><g id="Layer_1-2" data-name="Layer 1"><path class="cls-11" d="M951.69,338.75l-20.27-18.66s4.73-9.68,10.14-9,14.19,9.64,15.54,13.81S951.69,338.75,951.69,338.75Z"/><path class="cls-1" d="M916.55,311.07l14.87,9,11,10.1S931.42,335.22,916.55,311.07Z"/><path class="cls-12" d="M939.53,461.08s50.68-.69,52-6.22.68-43.54-3.38-44.92,35.82-5.53,48.65-38,10.14-20,10.14-20l-8.78-2.34s-20.27,49.34-53.38,25.84-19.24-22.81-27.53-18.66c0,0-2-13.13-12.93-3.46S938,383.87,938,383.87l-.69-14.67c-.19-1.18-1.61-1.06-2,.08-3.92,12.84-6.43,26.51,2.84,45.49,4.49,9.19-7.94,24.88-8.7,31.79S939.53,461.08,939.53,461.08Z"/><path class="cls-13" d="M845.1,347.34l-31.66-2.66s-1.45,3.22,8.36,4,.23,13,22.28,6.87"/><path class="cls-12" d="M933.38,390.45s-69.6-19.35-87.17-31.79,0-11.51,0-11.51l89,20.42Z"/><path class="cls-14" d="M991.56,454.86s-9.69,50.05-46.46,58c0,0-54.22,56.7-56.25,78.82,0,0-11.49,6.22-20.95-4.15,0,0,49.33-114.73,71.63-126.48C939.53,461.08,975.34,459.7,991.56,454.86Z"/><path class="cls-15" d="M991.56,454.86S976.69,534.34,999,604.15H986.71s-40.16-73.53-37.92-93.09c0,0,22.79-7.12,40.22-50"/><path class="cls-16" d="M988.18,409.93s-30.28-3.62-34.68-15.61C953.5,394.32,969.37,426.3,988.18,409.93Z"/><polygon class="cls-1" points="870.95 590.31 867.9 604.15 870.95 607.15 878.03 593.56 870.95 590.31"/><polyline class="cls-1" points="996 604.15 1002.6 616.14 994.65 616.14"/><polygon class="cls-17" points="989.79 604.15 996.75 616.14 1002.6 616.14 998.99 604.15 989.79 604.15"/><polygon class="cls-3" points="867.9 604.15 842.72 613.62 866.07 616.14 870.95 607.15 867.9 604.15"/><polygon class="cls-3" points="996.75 616.14 988.32 623.26 1004.13 623.26 1002.6 616.14 996.75 616.14"/><path class="cls-16" d="M932.6,374.59l-1.19,15.3s-1.95-.55-2-.57l-15.83-5.61a.05.05,0,0,1,0-.11C915.76,383.18,933.79,387.64,932.6,374.59Z"/><path class="cls-18" d="M911.18,358l15.4-28.93s-2.89-8.87,0-8.25c2.49.53,20.76,13.54,25.7,17.09a1.5,1.5,0,0,1,.31,2.11l-19.13,25.61a5.08,5.08,0,0,1-5.3,1.92L913.77,364A4.15,4.15,0,0,1,911.18,358Z"/><path class="cls-13" d="M944.35,353.26v-8.38s6-7.36,3.37-9.79-9.53-2.1-9.53,1.62,2.91,24.53-2.18,24.53c0,0-3.87,12.24,1.78,16C937.78,377.23,935.24,360.53,944.35,353.26Z"/><path class="cls-13" d="M929.73,326.66s-13.37,10-13.18,12.09,2.74,4.27,2.74,4.27l-1.09,1.86s11.53,11.35,17,3.07S927.81,328.13,929.73,326.66Z"/><path class="cls-19" d="M947.71,335.09l-16.29-15-14.87-9S930.91,330.48,947.71,335.09Z"/><polygon class="cls-17" points="870.95 590.31 867.9 604.15 870.95 607.15 878.03 593.56 870.95 590.31"/><path class="cls-13" d="M629.13,427.07s8.48-9.05,10-7.54,10.35,4.35,10.33,7.54-10.14,0-10.14,0-3.17,4.58-4.26,4.69-8.09,0-8.09,0Z"/><path class="cls-14" d="M568.23,373.83s26.18,43.43,62,52.11v7.54l-58.28,6Z"/><path class="cls-13" d="M588.75,332.47s-.61,12,3.07,13.87-1.56,3-1.56,3-3.68,13-13.2,11.32v-23Z"/><path class="cls-20" d="M548.3,367.47l12.54-2.26,8.48,17s12.17,21.88,11.43,27.54-3,7.17-3.69,11.69,0,14.07,0,14.07l3.72,35.73S562.35,481,556.25,478s0-91.67,0-91.67Z"/><path class="cls-13" d="M555.74,356.34l-7.43,11.13s9.22-4.53,13.65,8.68c0,0,3,6,7.38,6l-2.58-19.62,5.26-1.74S565.75,350.1,555.74,356.34Z"/><path class="cls-18" d="M577.07,337.67l17-7.54s-11.07-22.63-23.61-16.6-15.12,9.05-16.23,26.41-9.59,9.43-9.59,9.43,8.85,8.3,16.6,7.92,15.86,10.19,15.86,10.19Z"/><path class="cls-21" d="M547.88,476.11s31.44-.23,32.92-4.9S594.86,515,594.86,515s2.88,35.46,0,50.17-4.36,25.65-4.36,25.65h-8.82l-7.89-61.11s-4.65-13.2-8.35-13.2-14-22.63-14-22.63Z"/><path class="cls-22" d="M521.56,470.89s35.33,7.73,51.93,3.75c0,0-6.31,57.68-17.41,78.8a271.55,271.55,0,0,0-16.43,37.35H529.12S542.93,538,539.66,521l-5-17.35S518,482.11,521.56,470.89Z"/><path class="cls-12" d="M555.86,379.57s4.3,104.79.06,104.47c-1.56-.12-6.43,8.9-11.26,9.31-6.76.58-9.07-.64-17.18-13.84S519.3,463,519.3,463l12.24-66.49Z"/><path class="cls-23" d="M683.3,427.07l-148.65,15.5S502.2,444,502.2,446.69,497,457.43,500,463s16.14,10.14,19.32,9,164-31.31,164-31.31S695.84,433.86,683.3,427.07Z"/><path class="cls-14" d="M529.12,430.47l7.75,17s2.21,10.19,0,10.94-15.49,10.94-31,0a48.79,48.79,0,0,1-15-16.48A11.44,11.44,0,0,1,492.26,429c13.66-15.91,54.2-62.83,56-61.58,2.21,1.51,12.54-.38,5.16,25.65Z"/><path class="cls-13" d="M537.63,452s7.73,10.78,7,11.4-8.11,11.94-9.59,10.43S536.87,463,536.87,463l-2.22-3.47Z"/><polygon class="cls-3" points="529.12 590.8 526.17 609.66 544.66 609.66 534.65 602.49 539.66 590.8 529.12 590.8"/><polygon class="cls-3" points="581.68 590.8 581.68 609.66 603.26 609.66 589.61 602.87 590.5 590.8 581.68 590.8"/><path class="cls-24" d="M687.36,427.07h9.59l6.64-5.18,21.76,3.7-19,9.52-7.93-3.29-9.55,3.29s-1-5.18-3.3-6.61S687.36,427.07,687.36,427.07Z"/><polygon class="cls-25" points="191.83 440.23 291.41 387.21 288.51 377.83 191.83 413.75 179.64 443.18 191.83 440.23"/><path class="cls-13" d="M219.26,393.37s-.29,21.23,6.34,20.35,8.07-5.31,8.07-5.31,13.55,2.65,14.7-13.56c0,0,5.19,0,4.61-1.47s-7.21-8.26-8.07-18.28l-.86-10-19.89,18.58Z"/><path class="cls-26" d="M218.08,386.9s1.52-12.36,11.53-16.22c3.44-1.33,5.77-8.78,6-9.65a.59.59,0,0,1,.07-.16c.47-.74,4.28-6.36,7.9-1.4h0a13.07,13.07,0,0,1,1.73,12.19c-2.31,6.27-6,13.25-11.58,11.47-10.51-3.34-9.48,3.19-9.13,4.66a.76.76,0,0,0,.31.45l2.89,2a.79.79,0,0,1,0,1.28c-2.47,1.77-9.29,6.29-9.76,2.43A21.89,21.89,0,0,1,218.08,386.9Z"/><polygon class="cls-27" points="118.78 586.14 116.29 597.74 121.75 600.77 125.25 589.29 118.78 586.14"/><polygon class="cls-3" points="117.59 592.32 123.88 601.55 132.71 605.32 119.1 609.79 111.9 596.79 117.59 592.32"/><rect class="cls-27" x="191.49" y="584.49" width="5.7" height="10.96"/><path class="cls-21" d="M134.27,485.52s-.5,26.09,2.16,36.42c5.17,20.07-20.14,65.48-20.14,65.48L128.16,590S167.72,521.2,163,510.9s3.86-21,3.86-21Z"/><path class="cls-22" d="M191.46,493.24s8.67,31.45,8.63,83.5c0,10.69-.72,10.67-.72,10.67H187.86s-.63-47.16-11.15-57.75c-7.63-7.68-32.48-31.85-31-42.6S191.46,493.24,191.46,493.24Z"/><path class="cls-28" d="M218.63,387.48s0,55.44,77.56,57.5l2.88,6.78s-62,22.41-103.22-25.07c0,0-10.06,26.08-6.34,49l1.94,17.6-57.19-7.72s15.31-72.58,48.28-86C212.4,387.39,218.63,387.48,218.63,387.48Z"/><path class="cls-27" d="M191.49,595.45"/><polygon class="cls-3" points="191.49 595.45 191.49 600.77 203.82 602.12 207.33 593.46 200.09 595.45 191.49 593.46 191.49 595.45"/><path class="cls-13" d="M296.32,446.18s11.79-13.4,22.27,0a9.61,9.61,0,0,1-11.13,0l-8.46,6.7Z"/><path class="cls-13" d="M288.51,377.83s-4.54-15.41,0-16.08,3.88,8,3.88,8,3.93,2,3.93,8a12.13,12.13,0,0,1-4.91,9.38Z"/><path class="cls-29" d="M981.87,296.83s27.51,12.66,44-16.88c0,0,20,34.64,26.14,42.21,13.52,16.59,59.15,25.07,60.53,63.19l-46.77,12.21s-5.5-37-33-47.06S981.87,296.83,981.87,296.83Z"/><path class="cls-16" d="M957.27,356.72s-2.49,20-9.56,20.51S960.08,386.44,957.27,356.72Z"/><ellipse class="cls-13" cx="1054.75" cy="326.92" rx="3.7" ry="7.27" transform="translate(504.26 1284.17) rotate(-77.32)"/><path class="cls-30" d="M981.87,300s68.5,41.28,84.89,33.55c0,0,48.44,35.83-1,64C1065.78,397.55,1077.67,347.64,981.87,300Z"/><path class="cls-18" d="M137.17,474s45.34,9.2,53.21,9.51l1.08,9.75s-51.95-2.29-57.19-7.72Z"/><text></text></g></g></svg>