<svg xmlns="http://www.w3.org/2000/svg" xmlns:xlink="http://www.w3.org/1999/xlink" viewBox="0 0 571.11 727.74"><defs><style>.cls-1{fill:#726e6d;}.cls-2{fill:#c9c3c0;}.cls-3{fill:#e0ab7c;}.cls-4{fill:#2f1463;}.cls-5{fill:#5220a0;}.cls-6{fill:#a2003f;}.cls-7{fill:#b90034;}.cls-8{fill:#d00052;}.cls-9{fill:#f6f4f9;}.cls-10{opacity:0.21;fill:url(#linear-gradient);}.cls-11{opacity:0.24;fill:url(#linear-gradient-2);}.cls-12{fill:#aaa7a5;}.cls-13{fill:#fcfafa;}.cls-14{fill:#5b352e;}.cls-15{fill:#fefefd;}.cls-16{fill:#7a7979;}.cls-17{fill:#7f7f7f;}</style><linearGradient id="linear-gradient" x1="577.37" y1="618.64" x2="540.86" y2="715.99" gradientTransform="matrix(-0.94, 0, 0, 1, 969.81, 0)" gradientUnits="userSpaceOnUse"><stop offset="0"/><stop offset="1" stop-opacity="0"/></linearGradient><linearGradient id="linear-gradient-2" x1="213.27" y1="618.96" x2="192.51" y2="674.32" gradientTransform="matrix(-2.09, 0, 0, 1, 572.39, 0)" xlink:href="#linear-gradient"/></defs><title>Asset 1</title><g id="Layer_2" data-name="Layer 2"><g id="Layer_2-2" data-name="Layer 2"><rect class="cls-1" x="93.69" y="503.02" width="75.09" height="12.95"/><path class="cls-2" d="M6,333.49H176.78v29.43L6,358.22S-7.49,341.74,6,333.49Z"/><rect class="cls-2" x="22.81" y="358.68" width="16.9" height="244.12"/><rect class="cls-2" x="39.7" y="503.02" width="83.15" height="12.95"/><rect class="cls-2" x="118.36" y="361.32" width="15.72" height="241.49"/><rect class="cls-1" x="72.3" y="360.05" width="16.09" height="142.98"/><rect class="cls-1" x="72.3" y="515.97" width="16.09" height="86.83"/><rect class="cls-1" x="155.43" y="361.32" width="13.48" height="241.49"/><path class="cls-3" d="M150.9,171.83s28.9,28.66,37.79,22.74,27.68-49.32,31.42-59.77c4-11.15,2.22-13.54-7-17.13-24-9.41-27.64,18.39-23.82,23.16s10.49,5.93,10.49,5.93l-16.67,9.12-13.34-15.06S149.79,156.16,150.9,171.83Z"/><path class="cls-4" d="M136.76,247.79S257,258.76,257,290.36,180.58,455,173.84,452.64,143.5,435,143.5,435l61.8-114.2s-67.42-5.89-103.37-14.13S30,271.3,30,271.3Z"/><path class="cls-5" d="M30,266.66s-5.21,83.88,136.81,91.17a29,29,0,0,1,24.73,17.31c17.94,39.66,61.64,136,64.31,139.77l3.37,4.71h28.09s-43.57-184.67-52.81-207.2c-3.34-8.15-94.38-68.28-113.48-61.22L102,258.25Z"/><polygon class="cls-6" points="132.4 162.72 148.13 178.88 173.13 143.75 132.4 90.72 132.4 162.72"/><path class="cls-7" d="M31.33,269.58s85.39,3.53,111.24-22.37c0,0-20.22-117.73,5.62-137.74,0,0-20.22-67.11-34.83-55.33S12.23,54.13,31.33,269.58Z"/><path class="cls-8" d="M93.47,178.37l44.94-21.19S122.68,96,99.08,104.2,78.86,152.47,93.47,178.37Z"/><path class="cls-3" d="M93.37,180.34l30.34,41.2s30.34,10.71,95.51-12.3l46.07-17.13,5.62,17.13h22.47L270.9,187.4l-119.1,4.71S134.95,160.33,138.32,158,93.37,180.34,93.37,180.34Z"/><path class="cls-9" d="M147.51,434.92,131.78,451l46.07,67.08s20.22-11.39,7.87-25.75-14.61-32-11.24-36.46Z"/><polygon class="cls-10" points="440.5 604.57 571.11 727.74 433.77 727.74 317.92 601.27 440.5 604.57"/><polygon class="cls-11" points="21.38 602.8 102 687.27 272.42 687.27 168.47 602.8 21.38 602.8"/><path class="cls-9" d="M256.62,518.87l7.32,19.94L334.5,520.3s-1.9-22.38-17.9-16.15-31,2.11-33.38-2.5Z"/><path class="cls-12" d="M523.3,217.15h0a9,9,0,0,0-9.11-8.91H239.67a9,9,0,0,0-9.11,8.91h0a9,9,0,0,0,9.11,8.91h133.1V556.76a8.84,8.84,0,0,1-3.68,7.15l-53.47,38.76a.07.07,0,0,0,0,.12H444.95a1.85,1.85,0,0,0,1.08-3.38L393.26,563.9a8.85,8.85,0,0,1-3.94-7.34V227.41a1.37,1.37,0,0,1,1.38-1.35H514.19A9,9,0,0,0,523.3,217.15Z"/><rect class="cls-13" x="269.18" y="200.93" width="107.28" height="7.71" rx="3.85" ry="3.85"/><path class="cls-3" d="M122.49,57.95a3.26,3.26,0,0,0-1.73,4.46C125.4,72.23,139,99.95,145,99.05a15.12,15.12,0,0,0,8-3.75,3,3,0,0,1,4.47.46c3.63,5,11.68,13.9,22.35,13.6a3,3,0,0,0,2.2-1.05c2.3-2.65,8.44-10.06,8.44-13.58,0-2.42,3.41-1.45,6.41-.13a3.09,3.09,0,0,0,4.26-3c-.08-9.23,1.06-27.77,11-32.59C225.57,52.52,177,41.7,177,34.12a16.48,16.48,0,0,0-4.94-11.7,3.1,3.1,0,0,1-.42-.49c-1.76-2.53-14.9-20.69-23.56-11.62-9.3,9.74-16.53,29.22-14.46,36.8C135.11,52.49,127.2,56.23,122.49,57.95Z"/><path class="cls-14" d="M166.3,65.28,184.85,45.6a4.59,4.59,0,0,1,5.86-.78c6.69,4.24,21.76,13.31,24.23,10.58,3.19-3.54,19.89-2.59,24.45-20.61,2.07-8.19-17.51-9.06-24.3-9.12a4.69,4.69,0,0,1-3.68-1.89C207.14,18.22,194,2.23,183.06.64c-22.09-3.2-31.2,6.57-34,8-12.7,6.32-15.86,26.49-16.63,34.72A5.25,5.25,0,0,0,135,48.43l1.43.78a19.08,19.08,0,0,0,19-.46c4.34-2.56,8.41-3.35,6.58,4.42a5.5,5.5,0,0,1-.7,1.68l-2.44,3.85a5.38,5.38,0,0,0,1.62,7.41h0A4.59,4.59,0,0,0,166.3,65.28Z"/><path class="cls-14" d="M176,94.82c-14.85-3.66.17.11,0,0-6-3.66-11.88-17.37-10-28.86,1-6.22-1.19-7.57-3.66-7.36A7.36,7.36,0,0,0,156.11,64c-2.56,8.68-8.89,31.39-7.8,40.67,1.36,11.59,19,19.39,22.45,19s9.92-8.27,12.1-13.35C184.86,105.72,180.24,95.86,176,94.82Z"/><path class="cls-15" d="M176.37,105.36c1.94-2.19,12.43-12.1,39.22-6.78a1.07,1.07,0,0,1,.83.76c.94,3.43,4.87,22.53-14.28,27-20,4.65-25.2-16.31-26-20A1,1,0,0,1,176.37,105.36Z"/><path class="cls-13" d="M357,197.37l32.68-77.49a7.68,7.68,0,0,1,6.95-4.8c15.42-.17,61.66-.59,62.49.52l0,0a8.64,8.64,0,0,1,1.54,8.61l-31.33,79.86a7.69,7.69,0,0,1-7.16,5L364,208.69C358.45,208.65,354.77,202.68,357,197.37Z"/><path class="cls-16" d="M350.27,200.18s34-86.34,38.45-86.06l4.48.28-36.12,85.78Z"/><path class="cls-16" d="M413.88,161.67c-1.72,6-5.91,10-9.36,8.93s-4.84-6.84-3.12-12.85,5.91-10,9.36-8.93S415.6,155.65,413.88,161.67Z"/><polygon class="cls-17" points="372.77 226.06 390.69 226.06 389.31 265.36 372.77 226.06"/><polygon class="cls-17" points="22.8 358.68 39.7 358.68 39.7 399.53 22.8 358.68"/><polygon class="cls-17" points="118.36 361.32 134.08 361.32 134.08 409.55 118.36 361.32"/><polygon class="cls-17" points="393.25 563.9 423.83 602.8 450.85 602.8 393.25 563.9"/></g></g></svg>