<svg xmlns="http://www.w3.org/2000/svg" viewBox="0 0 117.948 57.487"><defs><style>.a{fill:#313131;stroke:#7b47d1;stroke-width:3px;}</style></defs><g transform="translate(-1523.706 -5407.673)"><g transform="translate(1525.206 5409.173)"><path class="a" d="M28.244,0c15.6,0,28.244,10.871,28.244,24.28a21.814,21.814,0,0,1-4.428,13.04c-1.757,3.11,7.862,7.657,7.862,7.657S49.259,46.546,46.782,42.6A30.831,30.831,0,0,1,28.244,48.56C12.645,48.56,0,37.69,0,24.28S12.645,0,28.244,0Z" transform="translate(0 0)"/></g><g transform="translate(1594.521 5426.679)"><path class="a" d="M24.125,0C12.245,0,2.615,8.278,2.615,18.49a16.612,16.612,0,0,0,3.372,9.93C7.326,30.789,0,34.252,0,34.252s8.121,1.195,10.007-1.811a23.479,23.479,0,0,0,14.117,4.54C36,36.981,45.634,28.7,45.634,18.49S36,0,24.125,0Z"/></g></g></svg>